<?xml version="1.0" encoding="utf-8"?>
<!-- Generator: Adobe Illustrator 24.3.0, SVG Export Plug-In . SVG Version: 6.00 Build 0)  -->
<svg version="1.2" baseProfile="tiny" id="Layer_1" xmlns="http://www.w3.org/2000/svg" xmlns:xlink="http://www.w3.org/1999/xlink"
	 x="0px" y="0px" viewBox="0 0 1380 1380" overflow="visible" xml:space="preserve">
<image display="none" width="1380" height="1380" xlink:href="checklist-box-front-view-3d-illustration-rendering-icon-transparent-background_557469-395.jpg" >
</image>
<g>
	<g>
		<g>
			<path fill="#B1B2B3" d="M1063,160.1c14,0,25.5,11.5,25.5,25.5v741c0,14-11.5,25.5-25.5,25.5H731.1c-14,0-34,7.7-44.5,17.1
				l-279.4,251.6c-4.2,3.8-7.3,5.6-9,5.6c-2.5,0-2.2-3.9,1.5-11.4L519.6,975c6.3-12.6-0.1-22.8-14.1-22.8H306.9
				c-14,0-25.5-11.5-25.5-25.5v-741c0-14,11.5-25.5,25.5-25.5H1063 M1063,65.1H306.9c-66.5,0-120.5,54.1-120.5,120.5v741
				c0,66.5,54.1,120.5,120.5,120.5h70.5l-62.7,125.5c-4.5,8.9-7.7,17.4-9.8,25.9c-6.9,27-2.9,54.4,11.2,77.3
				c9.4,15.1,22.7,27.4,38.6,35.4c13.4,6.8,28.5,10.3,43.5,10.3c18.8,0,36.8-5.2,53.5-15.6c6.5-4,12.7-8.7,19.1-14.5l271.3-244.3
				H1063c66.5,0,120.5-54.1,120.5-120.5v-741C1183.5,119.2,1129.4,65.1,1063,65.1L1063,65.1z"/>
		</g>
		<g>
			<path fill="#C8C8C9" d="M1074.2,154.2c12.5,0,22.7,10.2,22.7,22.7v759.3c0,12.5-10.2,22.7-22.7,22.7H730.5
				c-12.5,0-30.3,6.8-39.5,15.2l-288.7,260c-3.8,3.4-6.5,5-8,5c-2.3,0-2-3.5,1.3-10.1l124.7-249.7c5.6-11.2-0.1-20.3-12.5-20.3
				H299.6c-12.5,0-22.7-10.2-22.7-22.7V176.9c0-12.5,10.2-22.7,22.7-22.7H1074.2 M1074.2,59.2H299.6c-64.9,0-117.7,52.8-117.7,117.7
				v759.3c0,64.9,52.8,117.7,117.7,117.7h77.3l-66.2,132.6c-23.9,47.8-9.2,84.4,1.7,101.9c9.3,15.1,22.7,27.3,38.5,35.3
				c13.4,6.7,28.4,10.3,43.5,10.3c25.8,0,49.9-9.9,71.6-29.4l278.4-250.7h329.8c64.9,0,117.7-52.8,117.7-117.7V176.9
				C1191.8,112,1139,59.2,1074.2,59.2L1074.2,59.2z"/>
		</g>
		<g>
			<path fill="#DEDEDE" d="M1085.3,148.3c10.9,0,19.8,8.9,19.8,19.8v777.6c0,10.9-8.9,19.8-19.8,19.8H730c-10.9,0-26.5,6-34.6,13.3
				l-297.9,268.3c-3.3,3-5.7,4.4-7,4.4c-2,0-1.7-3.1,1.2-8.9l129.5-259.4c4.9-9.8-0.1-17.8-11-17.8H292.2
				c-10.9,0-19.8-8.9-19.8-19.8V168.2c0-10.9,8.9-19.8,19.8-19.8H1085.3 M1085.3,53.3H292.2c-63.3,0-114.8,51.5-114.8,114.8v777.6
				c0,63.3,51.5,114.8,114.8,114.8h84.1l-69.8,139.7c-4.1,8.3-7.2,16.3-9.2,24.3c-6.8,26.6-2.8,53.7,11.2,76.4
				c9.3,15.1,22.6,27.3,38.5,35.3c13.4,6.7,28.4,10.3,43.4,10.3c25.6,0,49.4-9.7,70.6-28.8l285.6-257.2h338.7
				c63.3,0,114.8-51.5,114.8-114.8V168.2C1200.2,104.9,1148.7,53.3,1085.3,53.3L1085.3,53.3z"/>
		</g>
	</g>
	<g>
		<path fill="#449362" d="M615.3,540l216.4-216.4c0,0,90-68.3,150.5-2.1c60.5,66.3,8.2,134,8.2,134L681.3,765.7
			c0,0-21.5,21.6-62.9,23.7c-41.4,2.1-79.3-35.1-79.3-35.1L383.4,592.5c0,0-38.5-62.8,11.2-119c49.6-56.2,123.8-25.3,123.8-25.3
			L615.3,540z"/>
		<path fill="#499C68" d="M615.6,544.3L832,327.9c0,0,90-68.3,150.5-2.1s8.2,134,8.2,134L681.5,770c0,0-21.5,21.6-62.9,23.7
			s-79.3-35.1-79.3-35.1L383.7,596.9c0,0-38.5-62.8,11.2-119s123.8-25.3,123.8-25.3L615.6,544.3z"/>
		<path fill="#4DA46D" d="M615.8,548.6l216.4-216.4c0,0,90-68.3,150.5-2.1s8.2,134,8.2,134L681.8,774.3c0,0-21.5,21.6-62.9,23.7
			s-79.3-35.1-79.3-35.1L383.9,601.2c0,0-38.5-62.8,11.2-119S519,456.9,519,456.9L615.8,548.6z"/>
		<path fill="#52AD73" d="M616.1,553l216.4-216.4c0,0,90-68.3,150.5-2.1c60.5,66.3,8.2,134,8.2,134L682.1,778.7
			c0,0-21.5,21.6-62.9,23.7s-79.3-35.1-79.3-35.1L384.2,605.5c0,0-38.5-62.8,11.2-119s123.8-25.3,123.8-25.3L616.1,553z"/>
		<path fill="#56B578" d="M616.4,557.3l216.4-216.4c0,0,90-68.3,150.5-2.1s8.2,134,8.2,134L682.3,783c0,0-21.5,21.6-62.9,23.7
			s-79.3-35.1-79.3-35.1L384.5,609.8c0,0-38.5-62.8,11.2-119s123.8-25.3,123.8-25.3L616.4,557.3z"/>
		<path fill="#5BBE7E" d="M616.6,561.6l216.4-216.4c0,0,90-68.3,150.5-2.1s8.2,134,8.2,134L682.6,787.3c0,0-21.5,21.6-62.9,23.7
			c-41.4,2.1-79.3-35.1-79.3-35.1L384.7,614.2c0,0-38.5-62.8,11.2-119s123.8-25.3,123.8-25.3L616.6,561.6z"/>
	</g>
</g>
</svg>
